<svg viewBox="0 0 1920 200" width="1920" height="200" xmlns="http://www.w3.org/2000/svg"><rect width="1920" height="200" fill="transparent"></rect><g transform="
        rotate(0 960 100) 
        translate(-0 -0) 
        scale(1)
      "><path fill="rgb(44, 62, 80)" d="M0,34.956L16.842,34.495C33.684,34.033,67.368,33.11,101.053,27.058C134.737,21.005,168.421,9.823,202.105,8.417C235.789,7.011,269.474,15.381,303.158,22.509C336.842,29.638,370.526,35.525,404.211,33.202C437.895,30.879,471.579,20.345,505.263,11.86C538.947,3.374,572.632,-3.064,606.316,2.006C640,7.077,673.684,23.655,707.368,23.057C741.053,22.459,774.737,4.685,808.421,1.274C842.105,-2.138,875.789,8.814,909.474,17.986C943.158,27.157,976.842,34.547,1010.526,31.908C1044.211,29.268,1077.895,16.599,1111.579,11.372C1145.263,6.145,1178.947,8.361,1212.632,5.442C1246.316,2.522,1280,-5.532,1313.684,-5.148C1347.368,-4.765,1381.053,4.058,1414.737,4.624C1448.421,5.189,1482.105,-2.501,1515.789,-0.057C1549.474,2.388,1583.158,14.968,1616.842,17.615C1650.526,20.263,1684.211,12.98,1717.895,14.533C1751.579,16.086,1785.263,26.476,1818.947,25.145C1852.632,23.814,1886.316,10.761,1903.158,4.234L1920,-2.292L1920,350L1903.158,350C1886.316,350,1852.632,350,1818.947,350C1785.263,350,1751.579,350,1717.895,350C1684.211,350,1650.526,350,1616.842,350C1583.158,350,1549.474,350,1515.789,350C1482.105,350,1448.421,350,1414.737,350C1381.053,350,1347.368,350,1313.684,350C1280,350,1246.316,350,1212.632,350C1178.947,350,1145.263,350,1111.579,350C1077.895,350,1044.211,350,1010.526,350C976.842,350,943.158,350,909.474,350C875.789,350,842.105,350,808.421,350C774.737,350,741.053,350,707.368,350C673.684,350,640,350,606.316,350C572.632,350,538.947,350,505.263,350C471.579,350,437.895,350,404.211,350C370.526,350,336.842,350,303.158,350C269.474,350,235.789,350,202.105,350C168.421,350,134.737,350,101.053,350C67.368,350,33.684,350,16.842,350L0,350Z"></path><path fill="rgb(162, 177, 188)" d="M0,82.946L16.842,77.324C33.684,71.702,67.368,60.458,101.053,54.041C134.737,47.624,168.421,46.034,202.105,49.547C235.789,53.059,269.474,61.674,303.158,61.276C336.842,60.877,370.526,51.464,404.211,50.611C437.895,49.758,471.579,57.464,505.263,60.133C538.947,62.803,572.632,60.437,606.316,63.522C640,66.606,673.684,75.141,707.368,77.541C741.053,79.942,774.737,76.208,808.421,75.938C842.105,75.669,875.789,78.864,909.474,80.51C943.158,82.157,976.842,82.254,1010.526,80.937C1044.211,79.62,1077.895,76.889,1111.579,70.195C1145.263,63.502,1178.947,52.847,1212.632,51.441C1246.316,50.035,1280,57.878,1313.684,59.745C1347.368,61.612,1381.053,57.503,1414.737,58.374C1448.421,59.246,1482.105,65.098,1515.789,69.443C1549.474,73.789,1583.158,76.629,1616.842,71.478C1650.526,66.326,1684.211,53.184,1717.895,49.383C1751.579,45.581,1785.263,51.121,1818.947,53.721C1852.632,56.321,1886.316,55.982,1903.158,55.812L1920,55.643L1920,300L1903.158,300C1886.316,300,1852.632,300,1818.947,300C1785.263,300,1751.579,300,1717.895,300C1684.211,300,1650.526,300,1616.842,300C1583.158,300,1549.474,300,1515.789,300C1482.105,300,1448.421,300,1414.737,300C1381.053,300,1347.368,300,1313.684,300C1280,300,1246.316,300,1212.632,300C1178.947,300,1145.263,300,1111.579,300C1077.895,300,1044.211,300,1010.526,300C976.842,300,943.158,300,909.474,300C875.789,300,842.105,300,808.421,300C774.737,300,741.053,300,707.368,300C673.684,300,640,300,606.316,300C572.632,300,538.947,300,505.263,300C471.579,300,437.895,300,404.211,300C370.526,300,336.842,300,303.158,300C269.474,300,235.789,300,202.105,300C168.421,300,134.737,300,101.053,300C67.368,300,33.684,300,16.842,300L0,300Z"></path><path fill="rgb(140, 192, 226)" d="M0,109.844L16.842,109.783C33.684,109.723,67.368,109.603,101.053,111.11C134.737,112.617,168.421,115.752,202.105,115.444C235.789,115.136,269.474,111.385,303.158,111.343C336.842,111.302,370.526,114.97,404.211,117.324C437.895,119.678,471.579,120.718,505.263,118.323C538.947,115.928,572.632,110.097,606.316,107.806C640,105.515,673.684,106.764,707.368,109.963C741.053,113.161,774.737,118.31,808.421,117.074C842.105,115.839,875.789,108.219,909.474,107.407C943.158,106.595,976.842,112.59,1010.526,116.186C1044.211,119.782,1077.895,120.98,1111.579,118.615C1145.263,116.25,1178.947,110.324,1212.632,106.471C1246.316,102.618,1280,100.838,1313.684,101.714C1347.368,102.589,1381.053,106.121,1414.737,109.704C1448.421,113.287,1482.105,116.922,1515.789,116.075C1549.474,115.228,1583.158,109.899,1616.842,105.925C1650.526,101.952,1684.211,99.333,1717.895,101.728C1751.579,104.123,1785.263,111.531,1818.947,113.153C1852.632,114.775,1886.316,110.61,1903.158,108.528L1920,106.446L1920,250L1903.158,250C1886.316,250,1852.632,250,1818.947,250C1785.263,250,1751.579,250,1717.895,250C1684.211,250,1650.526,250,1616.842,250C1583.158,250,1549.474,250,1515.789,250C1482.105,250,1448.421,250,1414.737,250C1381.053,250,1347.368,250,1313.684,250C1280,250,1246.316,250,1212.632,250C1178.947,250,1145.263,250,1111.579,250C1077.895,250,1044.211,250,1010.526,250C976.842,250,943.158,250,909.474,250C875.789,250,842.105,250,808.421,250C774.737,250,741.053,250,707.368,250C673.684,250,640,250,606.316,250C572.632,250,538.947,250,505.263,250C471.579,250,437.895,250,404.211,250C370.526,250,336.842,250,303.158,250C269.474,250,235.789,250,202.105,250C168.421,250,134.737,250,101.053,250C67.368,250,33.684,250,16.842,250L0,250Z"></path><path fill="rgb(61, 151, 210)" d="M0,161.843L16.842,160.46C33.684,159.078,67.368,156.313,101.053,155.531C134.737,154.748,168.421,155.949,202.105,154.749C235.789,153.548,269.474,149.947,303.158,149.5C336.842,149.053,370.526,151.761,404.211,153.654C437.895,155.547,471.579,156.625,505.263,157.191C538.947,157.757,572.632,157.811,606.316,157.156C640,156.501,673.684,155.138,707.368,153.671C741.053,152.203,774.737,150.63,808.421,150.885C842.105,151.141,875.789,153.224,909.474,153.961C943.158,154.698,976.842,154.089,1010.526,153.307C1044.211,152.525,1077.895,151.57,1111.579,150.94C1145.263,150.311,1178.947,150.007,1212.632,149.458C1246.316,148.909,1280,148.114,1313.684,149.524C1347.368,150.934,1381.053,154.548,1414.737,155.488C1448.421,156.429,1482.105,154.695,1515.789,155.139C1549.474,155.584,1583.158,158.206,1616.842,157.933C1650.526,157.661,1684.211,154.495,1717.895,152.57C1751.579,150.645,1785.263,149.962,1818.947,151.399C1852.632,152.835,1886.316,156.391,1903.158,158.169L1920,159.947L1920,200L1903.158,200C1886.316,200,1852.632,200,1818.947,200C1785.263,200,1751.579,200,1717.895,200C1684.211,200,1650.526,200,1616.842,200C1583.158,200,1549.474,200,1515.789,200C1482.105,200,1448.421,200,1414.737,200C1381.053,200,1347.368,200,1313.684,200C1280,200,1246.316,200,1212.632,200C1178.947,200,1145.263,200,1111.579,200C1077.895,200,1044.211,200,1010.526,200C976.842,200,943.158,200,909.474,200C875.789,200,842.105,200,808.421,200C774.737,200,741.053,200,707.368,200C673.684,200,640,200,606.316,200C572.632,200,538.947,200,505.263,200C471.579,200,437.895,200,404.211,200C370.526,200,336.842,200,303.158,200C269.474,200,235.789,200,202.105,200C168.421,200,134.737,200,101.053,200C67.368,200,33.684,200,16.842,200L0,200Z"></path></g></svg>